<svg width="24" height="24" viewBox="0 0 24 24" fill="none" xmlns="http://www.w3.org/2000/svg">
<path d="M2 2H5.83133L7.16463 15.2545C7.22005 15.6199 7.40567 15.953 7.6873 16.1923C7.96892 16.4317 8.32757 16.5612 8.69716 16.557H18.3521C18.6863 16.5745 19.017 16.482 19.2938 16.2939C19.5705 16.1057 19.778 15.8322 19.8846 15.515L21.9229 9.38577C21.9989 9.15533 22.0191 8.91015 21.9818 8.67039C21.9445 8.43063 21.8508 8.20315 21.7084 8.00669C21.56 7.7978 21.3616 7.62944 21.1314 7.51701C20.9011 7.40458 20.6464 7.35167 20.3904 7.36311H6.36772M17.3249 21.1539C17.3249 21.577 17.668 21.92 18.0912 21.92C18.5144 21.92 18.8574 21.577 18.8574 21.1539C18.8574 20.7307 18.5144 20.3877 18.0912 20.3877C17.668 20.3877 17.3249 20.7307 17.3249 21.1539ZM7.36591 21.1539C7.36591 21.577 7.70897 21.92 8.13217 21.92C8.55537 21.92 8.89844 21.577 8.89844 21.1539C8.89844 20.7307 8.55537 20.3877 8.13217 20.3877C7.70897 20.3877 7.36591 20.7307 7.36591 21.1539Z" stroke="#2765CE" stroke-width="1.6" stroke-linecap="round" stroke-linejoin="round"/>
</svg>
