<svg xmlns="http://www.w3.org/2000/svg" width="16" height="16" viewBox="0 0 16 16" fill="none">
  <path d="M4.662 2.23095C2.74909 3.31446 1.54898 5.13608 1.36747 7.2283C1.22777 8.57031 1.52037 9.93763 2.18918 11.0783C2.19578 11.0904 2.20898 11.097 2.22218 11.097C2.22768 11.097 2.23428 11.0959 2.23978 11.0926C2.25848 11.0827 2.26508 11.0596 2.25628 11.042C1.72058 9.87933 1.56768 8.55051 1.82508 7.2976C2.14078 5.50238 3.37059 3.96457 5.11301 3.18136C6.78393 2.43115 8.64844 2.53016 10.1016 3.44536C10.1016 3.44536 10.1016 3.44536 10.1027 3.44646C10.381 3.60597 10.6714 3.61037 10.9189 3.45856C11.1785 3.29906 11.3446 2.98666 11.3314 2.67976C11.3193 2.38715 11.1554 2.14625 10.8683 2.00105C9.97836 1.55555 9.00375 1.33334 8.02034 1.33334C6.87413 1.33334 5.71581 1.63365 4.662 2.23095Z" fill="#2765CE"/>
  <path d="M13.6358 4.90605C13.6171 4.91595 13.6105 4.93905 13.6193 4.95775C14.155 6.12046 14.3079 7.44927 14.0505 8.70218C13.7348 10.4974 12.5061 12.0352 10.7626 12.8184C9.09164 13.5686 7.22713 13.4696 5.77401 12.5544C5.77401 12.5544 5.77401 12.5544 5.77291 12.5533C5.49461 12.3938 5.20421 12.3883 4.9567 12.5412C4.6971 12.7007 4.531 13.0131 4.5431 13.32C4.5552 13.6126 4.7191 13.8535 5.0062 13.9987C6.93452 14.9645 9.25554 14.8787 11.2136 13.7688C13.1254 12.6853 14.3266 10.8637 14.5081 8.77148C14.6478 7.42947 14.3563 6.06216 13.6864 4.92145C13.6798 4.90935 13.6666 4.90275 13.6534 4.90275C13.6479 4.90275 13.6413 4.90385 13.6358 4.90715" fill="#2765CE"/>
  <path d="M13.6358 4.90605C13.6171 4.91595 13.6105 4.93905 13.6193 4.95775C14.155 6.12046 14.3079 7.44927 14.0505 8.70218C13.7348 10.4974 12.5061 12.0352 10.7626 12.8184C9.09164 13.5686 7.22713 13.4696 5.77401 12.5544C5.77401 12.5544 5.77401 12.5544 5.77291 12.5533C5.49461 12.3938 5.20421 12.3883 4.9567 12.5412C4.6971 12.7007 4.531 13.0131 4.5431 13.32C4.5552 13.6126 4.7191 13.8535 5.0062 13.9987C6.93452 14.9645 9.25554 14.8787 11.2136 13.7688C13.1254 12.6853 14.3266 10.8637 14.5081 8.77148C14.6478 7.42947 14.3563 6.06216 13.6864 4.92145C13.6798 4.90935 13.6666 4.90275 13.6534 4.90275C13.6479 4.90275 13.6413 4.90385 13.6358 4.90715M4.662 2.23095C2.74909 3.31446 1.54898 5.13608 1.36747 7.2283C1.22777 8.57031 1.52037 9.93763 2.18918 11.0783C2.19578 11.0904 2.20898 11.097 2.22218 11.097C2.22768 11.097 2.23428 11.0959 2.23978 11.0926C2.25848 11.0827 2.26508 11.0596 2.25628 11.042C1.72058 9.87933 1.56768 8.55051 1.82508 7.2976C2.14078 5.50238 3.37059 3.96457 5.11301 3.18136C6.78392 2.43115 8.64844 2.53016 10.1016 3.44536C10.1016 3.44536 10.1016 3.44536 10.1027 3.44646C10.381 3.60597 10.6714 3.61037 10.9189 3.45856C11.1785 3.29906 11.3446 2.98666 11.3314 2.67976C11.3193 2.38715 11.1554 2.14625 10.8683 2.00105C9.97836 1.55555 9.00375 1.33334 8.02034 1.33334C6.87413 1.33334 5.71581 1.63365 4.662 2.23095Z" stroke="#2765CE" stroke-width="0.666667"/>
</svg>