<svg width="24" height="24" viewBox="0 0 24 24" fill="none" xmlns="http://www.w3.org/2000/svg">
<path d="M13.6707 7.36451C13.6707 5.82393 14.441 5.82393 15.2113 5.82393H16.1356C16.29 5.826 16.4431 5.79713 16.5861 5.73902C16.7291 5.68092 16.859 5.59475 16.9682 5.48561C17.0773 5.37647 17.1635 5.24658 17.2216 5.10359C17.2797 4.9606 17.3085 4.80742 17.3065 4.65309V3.20494C17.3065 3.04988 17.2757 2.89636 17.2159 2.7533C17.1561 2.61023 17.0685 2.48047 16.9581 2.37154C16.8478 2.26261 16.7169 2.17669 16.573 2.11877C16.4292 2.06084 16.2753 2.03206 16.1202 2.0341L13.9326 2.00329C13.2956 1.97865 12.6609 2.09253 12.0722 2.33705C11.4835 2.58158 10.9549 2.95093 10.5228 3.41962C10.0907 3.88831 9.76549 4.44517 9.56955 5.05177C9.37362 5.65837 9.31164 6.30026 9.3879 6.93314V9.16698H8.17084C7.86031 9.16698 7.56251 9.29034 7.34293 9.50991C7.12336 9.72949 7 10.0273 7 10.3378V11.786C7 12.0965 7.12336 12.3943 7.34293 12.6139C7.56251 12.8334 7.86031 12.9568 8.17084 12.9568H9.3879V21.2297C9.3879 21.434 9.46905 21.6299 9.61351 21.7744C9.75797 21.9188 9.95389 22 10.1582 22H12.9466C13.1428 21.9882 13.3271 21.9019 13.4617 21.7587C13.5963 21.6155 13.6711 21.4262 13.6707 21.2297V12.9568H15.0264C15.3369 12.9568 15.6347 12.8334 15.8543 12.6139C16.0739 12.3943 16.1973 12.0965 16.1973 11.786V10.3378C16.1973 10.0273 16.0739 9.72949 15.8543 9.50991C15.6347 9.29034 15.3369 9.16698 15.0264 9.16698H13.6707V7.36451Z" stroke="#2765CE" stroke-width="1.6" stroke-linecap="round" stroke-linejoin="round"/>
</svg>
