<svg width="24" height="24" viewBox="0 0 24 24" fill="none" xmlns="http://www.w3.org/2000/svg">
<path d="M2 6.28569C2 3.91878 3.91877 2 6.2857 2H17.7143C20.0812 2 22 3.91878 22 6.28569V17.7142C22 20.0812 20.0812 22 17.7143 22H6.2857C3.91877 22 2 20.0812 2 17.7142V6.28569Z" stroke="#2765CE" stroke-width="1.6" stroke-linecap="round" stroke-linejoin="round"/>
<path d="M11.9974 16.2467C14.3431 16.2467 16.2447 14.3451 16.2447 11.9993C16.2447 9.65356 14.3431 7.75195 11.9974 7.75195C9.65161 7.75195 7.75 9.65356 7.75 11.9993C7.75 14.3451 9.65161 16.2467 11.9974 16.2467Z" stroke="#2765CE" stroke-width="1.6" stroke-linecap="round" stroke-linejoin="round"/>
<path d="M17.7832 6.36616C17.7044 6.36616 17.6406 6.30233 17.6406 6.22362C17.6406 6.14488 17.7044 6.08105 17.7832 6.08105" stroke="#2765CE" stroke-width="1.6" stroke-linecap="round" stroke-linejoin="round"/>
<path d="M17.7812 6.36616C17.86 6.36616 17.9238 6.30233 17.9238 6.22362C17.9238 6.14488 17.86 6.08105 17.7812 6.08105" stroke="#2765CE" stroke-width="1.6" stroke-linecap="round" stroke-linejoin="round"/>
</svg>
