<svg width="24" height="24" viewBox="0 0 24 24" fill="none" xmlns="http://www.w3.org/2000/svg">
<path d="M9.6899 20.1999C9.82289 20.7107 10.1216 21.163 10.5392 21.4858C10.9568 21.8086 11.4698 21.9837 11.9976 21.9837C12.5254 21.9837 13.0384 21.8086 13.456 21.4858C13.8736 21.163 14.1723 20.7107 14.3053 20.1999M12 2C13.7504 2 15.4292 2.69536 16.6669 3.9331C17.9046 5.17084 18.6 6.84957 18.6 8.6C18.6 15.9385 21.2769 17.3846 22 17.3846H2C2.73846 17.3846 5.4 15.9231 5.4 8.6C5.4 6.84957 6.09536 5.17084 7.3331 3.9331C8.57084 2.69536 10.2496 2 12 2Z" stroke="#2765CE" stroke-width="1.6" stroke-linecap="round" stroke-linejoin="round"/>
</svg>
