<svg width="24" height="24" viewBox="0 0 16 16" fill="none" xmlns="http://www.w3.org/2000/svg">
<path d="M10.6667 5.33333H10M10 10H10.6667M10.6667 7.66667H10M5.33335 10H8.00002M8.00002 5.33333H5.33335M8.00002 7.66667H5.33335M4.00002 2H12C12.7364 2 13.3334 2.59695 13.3334 3.33333V12.95C13.3334 13.1876 13.2069 13.4073 13.0014 13.5266L12.3411 13.9099C12.1355 14.0292 11.882 14.0301 11.6757 13.9122L10.6628 13.3336L9.67076 13.9093C9.46465 14.0289 9.21037 14.0295 9.00378 13.9107L8.00002 13.3333L6.99626 13.9106C6.78968 14.0294 6.53539 14.0289 6.32927 13.9093L5.33719 13.3336L4.32433 13.9122C4.11798 14.0301 3.86447 14.0292 3.65894 13.9099L2.99864 13.5266C2.79315 13.4073 2.66669 13.1876 2.66669 12.95V3.33333C2.66669 2.59695 3.26364 2 4.00002 2Z" stroke="#2765CE" stroke-width="1.2" stroke-linecap="round" stroke-linejoin="round"/>
</svg>
