<svg width="24" height="24" viewBox="0 0 24 24" fill="none" xmlns="http://www.w3.org/2000/svg">
<g id="icon.categories">
<g id="Vector">
<path d="M8.53842 3H4.38461C3.61991 3 3 3.61991 3 4.38461V8.53842C3 9.30312 3.61991 9.92303 4.38461 9.92303H8.53842C9.30312 9.92303 9.92303 9.30312 9.92303 8.53842V4.38461C9.92303 3.61991 9.30312 3 8.53842 3Z" stroke="#2765CE" stroke-width="1.6" stroke-linecap="round" stroke-linejoin="round"/>
<path d="M19.6197 3H15.4659C14.7012 3 14.0813 3.61991 14.0813 4.38461V8.53842C14.0813 9.30312 14.7012 9.92303 15.4659 9.92303H19.6197C20.3844 9.92303 21.0043 9.30312 21.0043 8.53842V4.38461C21.0043 3.61991 20.3844 3 19.6197 3Z" stroke="#2765CE" stroke-width="1.6" stroke-linecap="round" stroke-linejoin="round"/>
<path d="M8.53842 14.0769H4.38461C3.61991 14.0769 3 14.6968 3 15.4615V19.6153C3 20.38 3.61991 20.9999 4.38461 20.9999H8.53842C9.30312 20.9999 9.92303 20.38 9.92303 19.6153V15.4615C9.92303 14.6968 9.30312 14.0769 8.53842 14.0769Z" stroke="#2765CE" stroke-width="1.6" stroke-linecap="round" stroke-linejoin="round"/>
<path d="M19.6197 14.0769H15.4659C14.7012 14.0769 14.0813 14.6968 14.0813 15.4615V19.6153C14.0813 20.38 14.7012 20.9999 15.4659 20.9999H19.6197C20.3844 20.9999 21.0043 20.38 21.0043 19.6153V15.4615C21.0043 14.6968 20.3844 14.0769 19.6197 14.0769Z" stroke="#2765CE" stroke-width="1.6" stroke-linecap="round" stroke-linejoin="round"/>
</g>
</g>
</svg>
