<svg width="24" height="24" viewBox="0 0 24 24" fill="none" xmlns="http://www.w3.org/2000/svg">
<g id="icon.settings">
<path id="Vector" d="M9.45836 4.69231L10.1199 2.98462C10.2315 2.69548 10.4278 2.44679 10.6831 2.2711C10.9384 2.09541 11.2408 2.00092 11.5507 2H12.8122C13.1221 2.00092 13.4245 2.09541 13.6798 2.2711C13.9351 2.44679 14.1314 2.69548 14.243 2.98462L14.9045 4.69231L17.1507 5.98462L18.9661 5.70769C19.2683 5.66666 19.576 5.71642 19.8499 5.85065C20.1239 5.98488 20.3517 6.19752 20.5045 6.46154L21.1199 7.53846C21.2776 7.80669 21.3502 8.11643 21.3283 8.4268C21.3063 8.73717 21.1907 9.03359 20.9968 9.27692L19.8737 10.7077V13.2923L21.0276 14.7231C21.2215 14.9664 21.3371 15.2628 21.359 15.5732C21.381 15.8836 21.3084 16.1933 21.1507 16.4615L20.5353 17.5385C20.3825 17.8025 20.1546 18.0151 19.8807 18.1493C19.6068 18.2836 19.2991 18.3333 18.9968 18.2923L17.1814 18.0154L14.9353 19.3077L14.2737 21.0154C14.1622 21.3045 13.9659 21.5532 13.7106 21.7289C13.4553 21.9046 13.1529 21.9991 12.843 22H11.5507C11.2408 21.9991 10.9384 21.9046 10.6831 21.7289C10.4278 21.5532 10.2315 21.3045 10.1199 21.0154L9.45836 19.3077L7.21221 18.0154L5.39683 18.2923C5.09454 18.3333 4.78689 18.2836 4.51295 18.1493C4.23902 18.0151 4.01117 17.8025 3.85837 17.5385L3.24298 16.4615C3.08529 16.1933 3.01264 15.8836 3.03461 15.5732C3.05658 15.2628 3.17215 14.9664 3.36606 14.7231L4.48913 13.2923V10.7077L3.33529 9.27692C3.14138 9.03359 3.02582 8.73717 3.00384 8.4268C2.98187 8.11643 3.05452 7.80669 3.21221 7.53846L3.8276 6.46154C3.9804 6.19752 4.20825 5.98488 4.48218 5.85065C4.75612 5.71642 5.06378 5.66666 5.36606 5.70769L7.18144 5.98462L9.45836 4.69231ZM9.10452 12C9.10452 12.6086 9.28498 13.2034 9.62307 13.7094C9.96117 14.2154 10.4417 14.6098 11.004 14.8427C11.5662 15.0756 12.1849 15.1365 12.7817 15.0178C13.3786 14.8991 13.9268 14.606 14.3572 14.1757C14.7875 13.7454 15.0805 13.1971 15.1992 12.6003C15.318 12.0034 15.257 11.3847 15.0241 10.8225C14.7913 10.2603 14.3969 9.77973 13.8909 9.44163C13.3849 9.10354 12.79 8.92308 12.1814 8.92308C11.3654 8.92308 10.5828 9.24725 10.0057 9.82429C9.42869 10.4013 9.10452 11.1839 9.10452 12Z" stroke="#2765CE" stroke-width="1.6" stroke-linecap="round" stroke-linejoin="round"/>
</g>
</svg>
