<svg width="24" height="24" viewBox="0 0 24 24" fill="none" xmlns="http://www.w3.org/2000/svg">
<path d="M5.42849 19.5361C6.11501 18.4094 7.07988 17.4782 8.23034 16.832C9.3808 16.1859 10.6782 15.8465 11.9977 15.8465C13.3173 15.8465 14.6146 16.1859 15.7651 16.832C16.9156 17.4782 17.8804 18.4094 18.5669 19.5361M15.8411 9.6912C15.8411 11.815 14.1192 13.5368 11.995 13.5368C9.87082 13.5368 8.14884 11.815 8.14884 9.6912C8.14884 7.56736 9.87082 5.84564 11.995 5.84564C14.1192 5.84564 15.8411 7.56736 15.8411 9.6912ZM22 11.9986C22 17.5206 17.5228 21.9971 12 21.9971C6.47715 21.9971 2 17.5206 2 11.9986C2 6.4766 6.47715 2.00014 12 2.00014C17.5228 2.00014 22 6.4766 22 11.9986Z" stroke="#2765CE" stroke-width="1.6" stroke-linecap="round" stroke-linejoin="round"/>
</svg>
