<svg width="24" height="24" viewBox="0 0 24 24" fill="none" xmlns="http://www.w3.org/2000/svg">
<path d="M18.9231 4H5.07692C3.37759 4 2 5.37759 2 7.07692V16.3077C2 18.007 3.37759 19.3846 5.07692 19.3846H18.9231C20.6224 19.3846 22 18.007 22 16.3077V7.07692C22 5.37759 20.6224 4 18.9231 4Z" stroke="#2765CE" stroke-width="1.6" stroke-linecap="round" stroke-linejoin="round"/>
<path d="M9.3987 15.2618V8.80027C9.39549 8.69118 9.42209 8.58328 9.47565 8.48819C9.5292 8.39309 9.60768 8.31441 9.70263 8.2606C9.79758 8.2068 9.90541 8.17991 10.0145 8.18283C10.1236 8.18576 10.2298 8.21838 10.3218 8.27719L15.8602 11.508C15.9528 11.5623 16.0295 11.6398 16.0828 11.7329C16.1361 11.826 16.1642 11.9314 16.1642 12.0387C16.1642 12.146 16.1361 12.2514 16.0828 12.3446C16.0295 12.4377 15.9528 12.5152 15.8602 12.5695L10.3218 15.8003C10.2278 15.8545 10.1212 15.883 10.0127 15.8827C9.9042 15.8825 9.7977 15.8536 9.70398 15.7989C9.61027 15.7442 9.53267 15.6658 9.47906 15.5714C9.42544 15.4771 9.39772 15.3703 9.3987 15.2618Z" stroke="#2765CE" stroke-width="1.6" stroke-linecap="round" stroke-linejoin="round"/>
</svg>
